<svg class="p-media-object__image" width="1200pt" height="1200pt" version="1.1" viewBox="0 0 1200 1200" xmlns="http://www.w3.org/2000/svg">
 <g>
  <path d="m1200 600c0 214.36-114.36 412.44-300 519.62-185.64 107.18-414.36 107.18-600 0-185.64-107.18-300-305.26-300-519.62s114.36-412.44 300-519.62c185.64-107.18 414.36-107.18 600 0 185.64 107.18 300 305.26 300 519.62" fill="var(--icon-circle-colour)"/>
  <path d="m709.85 686.74c132.65-36.523 127.88-130.05 108.91-207.46-14.465-59.094-53.461-136.43-58.492-146.27-1.7734-6.6406-14.512-21.57-163.59-21.57-149.07 0-161.81 14.93-163.59 21.574-5.0312 9.8359-44.027 87.18-58.492 146.27-18.965 77.41-23.734 170.94 108.91 207.46 75.719 20.848 79.57 78.043 78.215 99.344-6.1992 2.1328-24.176 4.1992-38.906 5.8906-51.824 5.9492-116.31 13.352-119.29 47.039-0.63281 7.2109 1.7695 14.016 6.9648 19.691 11.734 12.82 43.793 29.859 186.18 29.859s174.45-17.039 186.18-29.859c5.1953-5.6758 7.6016-12.48 6.9648-19.691-2.9805-33.691-67.469-41.094-119.29-47.039-14.73-1.6914-32.707-3.7578-38.906-5.8906-1.3633-21.312 2.4883-78.5 78.211-99.348zm23.93-351.43c-18.215 2.4141-56.461 5.1172-137.1 5.1172-80.629 0-118.88-2.707-137.1-5.1172 16.91-3.8672 54.512-8.7656 137.1-8.7656 82.582 0.003907 120.19 4.8984 137.1 8.7656zm-116.96 455.12c1.0469 10.707 14.922 12.301 52 16.555 36.367 4.1758 104.07 11.949 105.96 33.359 0.26562 2.9961-0.70703 5.5859-3.0547 8.1562-10.422 11.379-49.238 24.953-175.04 24.953-125.8 0-164.62-13.57-175.04-24.953-2.3477-2.5664-3.3203-5.1602-3.0547-8.1562 1.8906-21.41 69.594-29.18 105.96-33.359 37.078-4.25 50.953-5.8438 52-16.555 1.4766-15.246 4.1641-92.605-89.02-118.26-119.09-32.789-117.59-110.35-98.258-189.29 13.707-55.949 51.43-131.45 56.953-142.36 19.668 4.8359 71.707 7.4648 150.46 7.4648 78.754 0 130.79-2.6289 150.46-7.4648 5.5234 10.906 43.246 86.406 56.953 142.36 19.336 78.938 20.828 156.5-98.258 189.29-93.18 25.652-90.496 103.01-89.02 118.26z" fill="var(--icon-colour)"/>
 </g>
</svg>
