<svg class="p-media-object__image" width="1200pt" height="1200pt" version="1.1" viewBox="0 0 1200 1200" xmlns="http://www.w3.org/2000/svg">
 <g>
  <path d="m1200 600c0 214.36-114.36 412.44-300 519.62-185.64 107.18-414.36 107.18-600 0-185.64-107.18-300-305.26-300-519.62s114.36-412.44 300-519.62c185.64-107.18 414.36-107.18 600 0 185.64 107.18 300 305.26 300 519.62" fill="var(--icon-circle-colour)"/>
  <path d="m600.07 287.28h-0.125c-239.89 0-239.89 11.777-239.89 19.668l0.42969 33.734c1.2695 101.51 74.25 187.57 173.54 204.62 17.801 3.0625 21.004 5.2773 20.648 4.7812 21.984 35.086 12.008 262.96 7.9258 286.9-2.375 13.875-44.797 23.836-72.871 30.434-36 8.4414-62.016 14.555-62.016 30.965 0 18.496 15.637 22.938 167.78 22.938 1.1016 0 2.2148 0 3.3203-0.015625l3.2773 0.41406 0.44922-0.33984c154.04-0.042969 169.76-4.457 169.76-22.996 0-16.414-26.008-22.523-62.008-30.965-28.074-6.5977-70.492-16.562-72.855-30.434-4.0898-23.941-14.066-251.82 7.2305-286.09 0.32422-0.25 3.7656-2.5742 21.328-5.5938 99.277-17.047 172.27-103.11 173.55-204.62l0.41406-33.828c0.007812-7.7969 0.007812-19.574-239.88-19.574zm0 15.113c114.54 0 171.62 2.9688 200.08 5.7305-27.828 3.5273-84.598 7.293-200.21 7.293-115.54 0-172.31-3.7617-200.16-7.2852 28.43-2.7656 85.516-5.7383 200.16-5.7383zm224.36 38.098c-1.1797 94.227-68.898 174.09-161 189.92-22.023 3.7773-28.148 7.2617-30.895 11.645-26.715 42.641-12.887 280.62-10.008 297.46 4.0586 23.762 44.855 33.344 84.309 42.598 18.953 4.457 47.586 11.172 50.641 15.867-8.0156 8.2227-107.57 8.2812-156.41 8.2812l-2.9609-0.79688-0.91406 0.79688c-49.43 0-146.74-0.13281-154.46-7.3672 2.8555-5.6094 31.496-12.324 50.449-16.781 39.461-9.2539 80.258-18.832 84.309-42.598 2.8789-16.84 16.715-254.82-10.008-297.46-2.7383-4.3906-8.8711-7.8672-30.906-11.652-92.102-15.824-159.8-95.688-160.98-189.92l-0.36719-28.82c0.32031-0.082031 0.78125-0.17578 1.1641-0.26562 25.84 7.4023 104.89 11.57 223.55 11.57 118.73 0 197.82-4.1758 223.61-11.586 0.41406 0.09375 0.89453 0.19531 1.2344 0.28125z" fill="var(--icon-colour)"/>
 </g>
</svg>
