<svg class="p-media-object__image" width="1200pt" height="1200pt" version="1.1" viewBox="0 0 1200 1200" xmlns="http://www.w3.org/2000/svg">
 <g>
  <path d="m1200 600c0 214.36-114.36 412.44-300 519.62-185.64 107.18-414.36 107.18-600 0-185.64-107.18-300-305.26-300-519.62s114.36-412.44 300-519.62c185.64-107.18 414.36-107.18 600 0 185.64 107.18 300 305.26 300 519.62" fill="var(--icon-circle-colour)"/>
  <path d="m600 263.68c-145.03 0-145.03 11.559-145.03 18.648l15.305 627.9 0.089843 3.2539 2.4062 2.1758c2.3477 2.1133 25.875 20.668 127.23 20.668 101.37 0 124.9-18.555 127.25-20.664l2.4062-2.1758 15.379-631.34c0.003906-6.9062 0.003906-18.465-145.03-18.465zm121.63 20.871c-15.484 2.1445-48.992 4.6406-121.63 4.6406-72.633 0-106.14-2.5-121.62-4.6445 14.348-2.5195 47.184-5.7539 121.62-5.7539 74.473 0 107.29 3.2344 121.63 5.7578zm-121.63 636.66c-78.035 0-106.91-11.336-114.71-15.371l-1.2656-51.965c15.5 6.9414 48.059 14.848 115.98 14.848 67.949 0 100.43-7.5742 115.99-14.59l-1.2578 51.707c-7.8516 4.0352-36.871 15.371-114.73 15.371zm116.42-84.844c-2.8516 2.4805-23.77 17.242-116.42 17.242-95.172 0-114.86-15.812-116.41-17.086l-13.297-545.71c23.457 4.8047 80.945 5.9375 129.7 5.9375s106.25-1.1328 129.71-5.9336z" fill="var(--icon-colour)"/>
 </g>
</svg>
