<svg class="p-media-object__image" width="1200pt" height="1200pt" version="1.1" viewBox="0 0 1200 1200" xmlns="http://www.w3.org/2000/svg">
 <g>
  <path d="m1200 600c0 214.36-114.36 412.44-300 519.62-185.64 107.18-414.36 107.18-600 0-185.64-107.18-300-305.26-300-519.62s114.36-412.44 300-519.62c185.64-107.18 414.36-107.18 600 0 185.64 107.18 300 305.26 300 519.62" fill="var(--icon-circle-colour)"/>
  <path d="m736.83 283.9 0.46484-2.6211c0-6.0312 0-22.035-139.18-22.035-139.18 0-139.18 16.008-139.18 22.035l0.46484 2.6211c0.26562 0.71484 26.434 72.109 30.566 132.82 3.7109 54.422-5.7773 105.52-14.156 150.6-4.0898 21.984-7.9492 42.746-9.418 60.426-3.5781 42.906-2.8477 85.078 44.715 129.18 8.5391 7.9258 15.957 14.434 22.391 20.074 14.672 12.871 23.527 20.633 29.07 30.406 6.5312 11.5 5.9414 49.668 2.7539 55.75-5.0781 7.8359-24.914 11.172-42.422 14.109-26.074 4.3672-53.031 8.8867-57.594 29.578-1.168 5.2695-0.03125 10.258 3.293 14.391 7.75 9.6562 29.199 19.516 129.52 19.516 100.32 0 121.76-9.8594 129.51-19.512 3.3203-4.1328 4.457-9.1211 3.293-14.391-4.5625-20.695-31.52-25.211-57.594-29.578-17.504-2.9375-37.344-6.2734-42.355-13.992-3.2539-6.1992-3.8438-44.367 2.6797-55.867 5.5508-9.7695 14.406-17.535 29.078-30.406 6.4336-5.6367 13.852-12.148 22.391-20.074 47.562-44.102 48.293-86.273 44.715-129.2-1.4688-17.668-5.3281-38.43-9.418-60.414-8.375-45.078-17.867-96.176-14.156-150.6 4.1328-60.652 30.305-132.11 30.57-132.82zm-22.723-1.9922c-14.102 2.0508-45.676 4.5312-115.99 4.5312-70.316 0-101.89-2.4844-115.99-4.5312 13.348-3.2695 44.48-7.5469 115.99-7.5469s102.64 4.2773 115.99 7.5469zm-8.5469 288.18c4.0156 21.594 7.8008 41.984 9.2188 58.898 3.3711 40.547 2.6992 77.328-39.934 116.87-8.4297 7.8086-15.734 14.215-22.082 19.777-15.32 13.445-25.445 22.316-32.258 34.301-8.8945 15.691-9.1289 60.887-2.2812 71.453 8.6953 13.402 30.023 16.988 52.598 20.766 20.148 3.3789 42.973 7.2188 45.336 17.934 0.20703 0.91406 0.074219 1.1953-0.31641 1.6836-3.3516 4.168-21.52 13.863-117.73 13.863s-114.38-9.6992-117.73-13.859c-0.39062-0.48828-0.52344-0.76562-0.31641-1.6836 2.3633-10.715 25.188-14.555 45.336-17.934 22.574-3.7773 43.902-7.3672 52.598-20.766 6.8477-10.566 6.6133-55.762-2.2891-71.453-6.8047-11.984-16.93-20.855-32.25-34.301-6.3477-5.5664-13.652-11.969-22.082-19.777-42.633-39.543-43.305-76.324-39.934-116.86 1.418-16.93 5.2031-37.32 9.2188-58.914 8.1172-43.691 18.223-98.066 14.383-154.4-3.3984-49.867-20.488-104.89-27.977-127.04 23.133 4.3086 76.023 5.3359 121.04 5.3359s97.906-1.0273 121.04-5.3359c-7.4883 22.148-24.582 77.172-27.977 127.04-3.8398 56.328 6.2656 110.71 14.383 154.39z" fill="var(--icon-colour)"/>
 </g>
</svg>
