<svg class="p-media-object__image" width="1200pt" height="1200pt" version="1.1" viewBox="0 0 1200 1200" xmlns="http://www.w3.org/2000/svg">
 <g>
  <path d="m1200 600c0 214.36-114.36 412.44-300 519.62-185.64 107.18-414.36 107.18-600 0-185.64-107.18-300-305.26-300-519.62s114.36-412.44 300-519.62c185.64-107.18 414.36-107.18 600 0 185.64 107.18 300 305.26 300 519.62" fill="var(--icon-circle-colour)"/>
  <path d="m700.79 696.08c9.0312-5.8906 17.578-11.453 23.57-17.852 18.289-19.477 67.926-294.11 77.695-348.96l0.78125-4.3672-3.4375-2.8047c-4.1758-3.4336-30.938-14.613-199.39-14.613-168.46 0-195.21 11.18-199.4 14.613l-3.4258 2.8047 0.77344 4.3672c9.7656 54.855 59.418 329.49 77.691 348.96 6.0078 6.3984 14.539 11.965 23.578 17.852 17.766 11.578 37.891 24.699 41.695 46.598 9.1953 52.93-27.984 66.473-77.543 78.672-24.695 6.082-44.191 10.887-47.844 26.117-1.4609 6.1016-0.11719 12 3.875 17.07 9.4844 12.016 38.516 27.992 180.6 27.992 142.09 0 171.13-15.977 180.61-28 3.9844-5.0625 5.3281-10.961 3.8672-17.055-3.6445-15.238-23.145-20.043-47.836-26.125-49.562-12.199-86.746-25.742-77.551-78.672 3.8086-21.895 23.941-35.02 41.699-46.598zm75.031-365.45c-19.664 3.1953-66.168 7.2383-175.82 7.2383-109.01 0-155.61-3.9961-175.47-7.1836 20.816-3.4492 68.664-8.0938 175.47-8.0938 107.8 0 155.53 4.7305 175.82 8.0391zm-42.797 505.4c16.516 4.0664 35.246 8.6797 36.754 14.965 0.32422 1.3125 0.26562 2.5312-1.0352 4.1758-6.5547 8.3125-37.18 22.246-168.74 22.246-131.55 0-162.18-13.934-168.73-22.242-1.3008-1.6445-1.3594-2.8633-1.0391-4.1758 1.5039-6.2891 20.23-10.898 36.754-14.965 40.289-9.918 101.16-24.906 88.824-95.934-4.9375-28.383-28.996-44.066-48.34-56.672-8.25-5.3867-16.043-10.465-20.762-15.484-11.891-14.516-49.77-206.98-72.137-331.6 23.996 5.8867 88.137 9.0859 185.43 9.0859 97.297 0 161.43-3.1914 185.43-9.0781-22.379 124.62-60.25 317.08-72.09 331.54-4.7656 5.0781-12.562 10.156-20.812 15.535-19.336 12.613-43.41 28.297-48.324 56.68-12.352 71.02 48.531 86.008 88.812 95.93z" fill="var(--icon-colour)"/>
 </g>
</svg>
