<svg class="p-media-object__image" width="1200pt" height="1200pt" version="1.1" viewBox="0 0 1200 1200" xmlns="http://www.w3.org/2000/svg">
 <g>
  <path d="m1200 600c0 214.36-114.36 412.44-300 519.62-185.64 107.18-414.36 107.18-600 0-185.64-107.18-300-305.26-300-519.62s114.36-412.44 300-519.62c185.64-107.18 414.36-107.18 600 0 185.64 107.18 300 305.26 300 519.62" fill="var(--icon-circle-colour)"/>
  <path d="m697.89 868.02c-25.312-10.938-53.992-23.32-62.375-48.723-11.527-34.922-16.297-115.6 81.328-263.46 31.66-47.941 45.625-89.875 34.141-186.05-4.207-35.23-12.207-82.141-12.871-86.008-0.17578-1.4922-0.83984-3.4844-2.7148-5.4922-9.8164-10.512-54.422-15.84-132.56-15.84-78.148 0-122.75 5.3281-132.56 15.836-1.8672 2.0117-2.5273 4.0039-2.7188 5.4922-0.66406 3.8828-8.6641 50.789-12.871 86.008-11.484 96.176 2.4883 138.11 34.133 186.05 97.637 147.87 92.863 228.54 81.336 263.46-8.3906 25.402-37.07 37.785-62.375 48.723-22.723 9.8164-42.348 18.289-41.293 35.777 1.3047 21.371 24.031 33.758 136.35 33.758 112.32 0 135.05-12.383 136.34-33.758 1.0625-17.488-18.57-25.961-41.285-35.773zm13.824-583.68c-15.371 1.8672-46.387 3.8789-108.88 3.8789-62.496 0-93.508-2.0117-108.88-3.8789 14.52-3.1367 45.047-6.7773 108.88-6.7773 63.832 0 94.359 3.6406 108.88 6.7773zm-108.88 638.1c-79.668 0-120.47-6.582-121.26-19.559-0.41406-6.8945 16.164-14.066 32.199-20.988 26.828-11.586 60.215-26.008 70.73-57.844 12.391-37.535 18.074-123.36-83.062-276.54-26.164-39.617-43.75-75.426-31.742-175.93 3.6484-30.578 10.152-69.84 12.148-81.68 20.512 4.7617 74.949 5.8711 120.99 5.8711 46.035 0 100.46-1.1133 120.99-5.8711 2 11.84 8.5 51.102 12.164 81.68 11.984 100.5-5.5938 136.31-31.75 175.93-101.14 153.18-95.461 239.01-83.07 276.54 10.508 31.836 43.895 46.258 70.73 57.844 16.031 6.9219 32.605 14.082 32.191 20.988-0.78125 12.977-41.578 19.559-121.25 19.559z" fill="var(--icon-colour)"/>
 </g>
</svg>
