<?xml version="1.0" encoding="UTF-8"?>
<svg width="1200pt" height="1200pt" version="1.1" viewBox="0 0 1200 1200" xmlns="http://www.w3.org/2000/svg">
 <g>
  <path d="m1200 600c0 214.36-114.36 412.44-300 519.62-185.64 107.18-414.36 107.18-600 0-185.64-107.18-300-305.26-300-519.62s114.36-412.44 300-519.62c185.64-107.18 414.36-107.18 600 0 185.64 107.18 300 305.26 300 519.62" fill="#ff814a"/>
  <path d="m680.88 887.2c-18.879-5.1953-42.363-11.645-45.469-19.867-14.789-39.129-8.9883-207.32 1.8008-233.43 2.0664-4.9883 6.375-10.848 11.836-18.273 12.922-17.566 32.457-44.117 45.16-91.777 23.211-87.086 3.793-251.45 3.0117-257.58-0.050781-5.625-0.16797-18.789-97.219-18.789-97.047 0-97.164 13.164-97.164 17.965-0.83203 6.9531-20.25 171.32 2.9609 258.4 12.699 47.66 32.234 74.215 45.16 91.777 5.4609 7.4258 9.7695 13.285 11.836 18.273 10.789 26.109 16.59 194.3 1.8008 233.43-3.1055 8.2227-26.59 14.672-45.469 19.867-29.387 8.0742-59.785 16.414-60.812 38.465-0.17578 3.8242 0.14844 8.7812 4.3086 13.137 8.6719 9.0898 32.305 13.711 137.38 13.711 105.08 0 128.71-4.6211 137.38-13.711 4.1641-4.3555 4.4883-9.3125 4.3086-13.137-1.0234-22.051-31.422-30.391-60.809-38.465zm-4.3086-619.17c-11.141 1.2812-33.184 2.6445-76.57 2.6445-43.383 0-65.426-1.3633-76.566-2.6445 9.4141-2.3438 30.527-5.4297 76.566-5.4297 46.059 0 67.16 3.0859 76.57 5.4297zm49.953 660.25c-3.8203 6.0508-46.391 9.1211-126.52 9.1211s-122.7-3.0703-126.52-9.1055c-0.023437-0.058594-0.14844-0.44141-0.074219-1.918 0.51562-11.086 27.801-18.582 49.719-24.605 25.594-7.0273 49.77-13.668 55.602-29.094 15.402-40.754 11.41-212.16-1.9766-244.56-2.7656-6.6875-7.5586-13.195-13.625-21.445-12.98-17.652-30.766-41.816-42.738-86.715-19.676-73.84-6.9961-210.82-3.3828-245.31 13.746 2.3711 41.41 3.5859 82.992 3.5859 41.566 0 69.219-1.2148 82.973-3.5859 3.5 33.047 16.422 171.07-3.3633 245.31-11.969 44.898-29.758 69.062-42.738 86.715-6.0664 8.25-10.855 14.762-13.625 21.445-13.387 32.398-17.379 203.81-1.9766 244.56 5.832 15.426 30.008 22.066 55.602 29.094 21.918 6.0234 49.203 13.52 49.719 24.605 0.074218 1.4766-0.050782 1.8594-0.066406 1.9062z" fill="#fff"/>
 </g>
</svg>
