<?xml version="1.0" encoding="UTF-8"?>
<svg width="1200pt" height="1200pt" version="1.1" viewBox="0 0 1200 1200" xmlns="http://www.w3.org/2000/svg">
 <path d="m1014.2 19.477c-102.61 0-190.08 84.926-185.23 193.84-41.438 6.3828-94.031 12.758-131.86 12.758-71.879 0-324.14-49.332-361.85-49.332-65.699 0-181.88 25.043-181.88 25.043 122.14 119.28 357.3 345.06 357.3 345.04 3.3711 2.9648 7.668 4.9219 12.504 4.9219 5.4844 0 10.391-2.3867 13.895-6.1211 32.23-29.102 385.96-373.43 414.41-401.27 11.746-11.363 17.316-12.324 26.438-12.324 7.2227 0 13.969 2.5781 19.523 7.4766 6.1914 5.4102 9.8164 12.781 10.246 20.699 0.44531 8.1602-2.5312 16.055-8.4102 23.09-1.7148 1.4766-383.26 374.63-425.83 411.61-23.594 20.52-32.102 25.367-50.258 25.934-18.156-0.5625-26.664-5.4102-50.281-25.934-42.609-36.988-420.72-406.97-420.72-406.97-15.613-15.133-31.441-22.668-44.375-11.27-12.637 11.113-8.7734 25.969 2.9414 38.762 0 0 428.11 451.22 464.51 496.69 14.977 18.66 16.512 22.598 15.805 41.184-0.66016 18.602-10.609 340.25-10.609 340.25-0.82812 19.262-2.3047 25.129-9.7578 33.516-7.9805 7.8477-35.785 11.484-54.73 15.324-40.523 8.1836-151.08 27.098-151.08 27.098-13.414 0.53906-23.508 4.4297-23.902 15.047-0.39453 10.332 7.8945 15.277 18.59 15.469 0 0 169.41-7.8477 263.59-7.8477 94.152 0 263.58 7.8477 263.58 7.8477 10.691-0.19141 18.984-5.1367 18.59-15.469-0.39453-10.621-10.477-14.508-23.902-15.047 0 0-110.55-18.91-151.08-27.098-18.938-3.8398-46.754-7.4766-54.742-15.324-7.4531-8.3867-8.9023-14.258-9.7422-33.516 0 0-9.9492-321.65-10.609-340.25-0.70703-18.59 0.82813-22.523 15.793-41.184 23.09-28.848 203.76-220.92 332.81-357.54 30.863 22.871 68.977 36.504 110.32 36.504 102.64 0 185.79-83.219 185.79-185.83 0.007812-102.61-83.152-185.77-185.78-185.77z" fill="#fff"/>
</svg>
