<?xml version="1.0" encoding="UTF-8"?>
<svg width="1200pt" height="1200pt" version="1.1" viewBox="0 0 1200 1200" xmlns="http://www.w3.org/2000/svg">
 <g>
  <path d="m1200 600c0 214.36-114.36 412.44-300 519.62-185.64 107.18-414.36 107.18-600 0-185.64-107.18-300-305.26-300-519.62s114.36-412.44 300-519.62c185.64-107.18 414.36-107.18 600 0 185.64 107.18 300 305.26 300 519.62" fill="#ff814a"/>
  <path d="m603.78 262.32c-239.89 0-239.89 11.777-239.89 19.57v2.4062l1.3867 1.9648c1.6602 2.3398 166.21 234.82 194.59 280.12 21.984 35.086 12.008 262.96 7.9258 286.9-2.375 13.875-44.789 23.836-72.855 30.422-36.008 8.457-62.027 14.566-62.027 30.996 0 17.461 7.7773 22.98 170.77 22.98h0.20703c162.99 0 170.77-5.5195 170.77-22.98 0-16.43-26.023-22.539-62.027-30.996-28.066-6.582-70.48-16.547-72.855-30.422-4.082-23.941-14.059-251.81 7.9258-286.9 28.375-45.297 192.93-277.79 194.59-280.12l1.3867-1.9648-0.003906-2.4023c0-7.793 0-19.574-239.89-19.574zm200.23 20.848c-27.82 3.5273-84.59 7.293-200.23 7.293s-172.41-3.7656-200.23-7.293c28.445-2.7617 85.652-5.7305 200.23-5.7305 114.58 0 171.79 2.9688 200.23 5.7305zm-169.14 275.19c-26.723 42.648-12.887 280.62-10.008 297.46 4.0586 23.762 44.848 33.344 84.289 42.598 18.965 4.457 47.625 11.188 50.656 16-8.0078 8.1484-107.92 8.1484-155.93 8.1484h-0.20703c-48.016 0-147.93 0-155.75-7.3516 2.8477-5.6094 31.504-12.34 50.473-16.797 39.438-9.2539 80.227-18.832 84.289-42.598 2.8789-16.84 16.715-254.82-10.008-297.46-25.555-40.773-155.57-224.98-187.93-270.73 29.84 6.668 106.74 10.398 219.02 10.398s189.18-3.7266 219.02-10.395c-32.352 45.754-162.38 229.96-187.93 270.73z" fill="#fff"/>
 </g>
</svg>
