<?xml version="1.0" encoding="UTF-8"?>
<svg width="1200pt" height="1200pt" version="1.1" viewBox="0 0 1200 1200" xmlns="http://www.w3.org/2000/svg">
 <g>
  <path d="m1200 600c0 214.36-114.36 412.44-300 519.62-185.64 107.18-414.36 107.18-600 0-185.64-107.18-300-305.26-300-519.62s114.36-412.44 300-519.62c185.64-107.18 414.36-107.18 600 0 185.64 107.18 300 305.26 300 519.62" fill="#ff814a"/>
  <path d="m746.26 901.18c-7.1133-11.645-21.402-15.703-37.949-20.398-31.527-8.9609-70.758-20.102-77.637-90.227-5.7578-58.688 17.801-98.598 38.98-126.82 4.9883-6.6562 10.348-12.945 15.617-19.16 16-18.82 32.531-38.289 35.586-64.355 4.6055-39.484 2.5391-294.27 2.3906-304.13l-0.015625-4.207-2.2578-2.5391c-2.8906-3.2617-11.688-13.195-120.97-13.195s-118.08 9.9336-120.97 13.195l-2.3008 2.9531-0.03125 2.832c-0.089843 10.82-2.1562 265.61 2.4492 305.09 3.0547 26.066 19.586 45.535 35.586 64.355 5.2695 6.2148 10.629 12.5 15.617 19.16 21.18 28.223 44.738 68.133 38.98 126.82-6.8789 70.125-46.109 81.27-77.637 90.227-16.547 4.6953-30.832 8.7539-37.949 20.398-6.5547 10.715-4.7656 18.629-2.0977 23.379 7.3984 13.211 30.5 25.434 148.36 25.434 117.86 0 140.96-12.223 148.35-25.43 2.6758-4.7539 4.4609-12.668-2.0938-23.383zm-42.539-623.61c-12.344 1.8281-40.371 4.0859-103.72 4.0859-63.355 0-91.383-2.2578-103.72-4.0859 10.445-2.5469 37.078-6.3047 103.72-6.3047 66.629 0 93.27 3.7539 103.72 6.3047zm31.457 639.59c-4.5312 8.0742-31.66 17.715-135.18 17.715-103.51 0-130.64-9.6367-135.17-17.711-0.36719-0.66406-1.5039-2.6875 1.8164-8.1016 4.0312-6.5977 15.691-9.9023 29.18-13.742 32.117-9.1211 80.664-22.922 88.559-103.29 6.2578-63.867-19.129-106.95-41.934-137.36-5.1797-6.9062-10.73-13.445-16.207-19.883-15.203-17.902-29.562-34.805-32.074-56.309-4.0039-34.305-2.7734-245.39-2.4688-294.11 20.691 3.9062 68.035 4.8359 108.3 4.8359 40.242 0 87.555-0.92969 108.26-4.8359 0.32422 46.656 1.5898 259.63-2.4297 294.1-2.5078 21.504-16.871 38.406-32.074 56.309-5.4766 6.4336-11.027 12.973-16.207 19.883-22.805 30.406-48.191 73.492-41.934 137.36 7.8984 80.367 56.441 94.168 88.559 103.29 13.492 3.8359 25.152 7.1445 29.18 13.742 3.3281 5.4219 2.1914 7.4414 1.8242 8.1055z" fill="#fff"/>
 </g>
</svg>
