<?xml version="1.0" encoding="UTF-8"?>
<svg width="1200pt" height="1200pt" version="1.1" viewBox="0 0 1200 1200" xmlns="http://www.w3.org/2000/svg">
 <g>
  <path d="m1200 600c0 214.36-114.36 412.44-300 519.62-185.64 107.18-414.36 107.18-600 0-185.64-107.18-300-305.26-300-519.62s114.36-412.44 300-519.62c185.64-107.18 414.36-107.18 600 0 185.64 107.18 300 305.26 300 519.62" fill="#ff814a"/>
  <path d="m840.52 354.17-2.2422-2.4062c-9.9492-10.707-89.688-16.133-237.02-16.133-147.34 0-227.07 5.4258-237.02 16.133l-2.7344 3.1172 66.73 457.68 71.047 38.48 101.98 13.336 99.312-12.48 73.711-39.336 66.258-454.63zm-70.848 385.29-53.863 20.613 16.855-116.4c2.332-16.082 11.203-30.797 24.34-40.363l36.383-26.512zm-360.55-162.67 36.395 26.52c13.137 9.5703 22 24.281 24.332 40.363l16.824 116.2-53.832-20.422zm93.527 187.96-17.848-123.25c-1.0156-7.0039-3.3438-13.648-6.2227-20.039 3.8984-4.668 17.395-17.289 50.133-17.289 26.953 0 61.285 22.684 68.766 27.863v145.43zm102.39-132.72c7.4805-5.1797 41.809-27.863 68.758-27.863 32.746 0 46.238 12.621 50.137 17.289-2.8828 6.3906-5.2109 13.035-6.2227 20.039l-17.859 123.34-94.812 12.633zm191.4-76.172-48.336 35.223c-8.4688 6.1719-15.441 14.098-20.68 23.047-6.7734-6.7812-22.289-17.52-53.625-17.52-28.773 0-63.426 22.539-72.539 28.828-9.1133-6.2891-43.77-28.828-72.547-28.828-31.328 0-46.844 10.738-53.621 17.516-5.2383-8.9453-12.203-16.871-20.676-23.043l-48.348-35.227-27.594-189.23c27.883 7.1133 106.33 11.105 222.79 11.105 116.42 0 194.86-3.9961 222.76-11.102zm22.75-195.69c-18.645 3.9688-71.109 10.008-217.93 10.008-146.84 0-199.29-6.043-217.93-10.008 17.66-3.5508 69.32-9.4219 217.93-9.4219 148.61 0 200.26 5.8672 217.93 9.4219zm-121.91 476.91-96.016 12.066-96.02-12.066-63.145-34.199-6.7539-46.324 57.973 21.992 107.95 14.672 106.85-14.234 59.07-22.422-6.7539 46.32z" fill="#fff"/>
 </g>
</svg>
