<?xml version="1.0" encoding="UTF-8"?>
<svg width="1200pt" height="1200pt" version="1.1" viewBox="0 0 1200 1200" xmlns="http://www.w3.org/2000/svg">
 <g>
  <path d="m60 0h1080c33.137 0 60 33.137 60 60v1080c0 33.137-26.863 60-60 60h-1080c-33.137 0-60-33.137-60-60v-1080c0-33.137 26.863-60 60-60z" fill="#ff814a"/>
  <path d="m751.57 453.15c-0.89844-2.4219-22.348-59.512-34.508-77.223-9.5781-13.965-28.887-21.371-37.977-24.207l-12.43-72.531c-3.5586-20.648-21.344-35.629-42.184-35.629 0 0-12.68-0.16406-16.914-0.16406-4.207 0-16.754 0.16406-16.812 0.16406-20.945 0-38.73 14.98-42.289 35.629l-12.43 72.531c-9.0938 2.832-28.398 10.242-37.977 24.207-12.164 17.711-33.609 74.805-34.508 77.223l-0.57422 1.5508 32.516 467.12c0.73828 8.6953 13.164 28.945 112.07 28.945 98.906 0 111.34-20.25 112.09-29.062l32.398-465.37 0.10156-1.6367zm-188.21-171.39c2.3008-13.371 13.816-23.086 27.484-23.086 0 0 12.531-0.16406 16.707-0.16406 4.1758 0 16.707 0.16406 16.812 0.16406 13.566 0 25.078 9.7109 27.379 23.086l13.465 78.461c-6.6914 2.2812-22.199 5.2695-57.656 5.2695-35.43 0-50.941-2.9844-57.645-5.2695zm-52.855 102.73c7.2148-10.535 24.855-17.004 32.547-19.066 9.3477 4.9922 31.098 7.625 64.5 7.625 33.398 0 55.152-2.6328 64.5-7.6289 7.6953 2.0664 25.332 8.5312 32.547 19.066 9.1445 13.316 25.266 54.27 30.828 68.754-9.5508 4.375-39.906 13.477-127.88 13.477-88.348 0-118.72-9.3086-127.9-13.406 5.5391-14.418 21.695-55.484 30.855-68.82zm194.14 534.99c-1.8281 2.3164-16.203 16.176-97.09 16.176-80.887 0-95.262-13.859-97.09-16.176l-31.352-450.48c17.191 6.0039 53.254 12.828 128.44 12.828 75.129 0 111.14-6.5273 128.43-12.594z" fill="#fff"/>
 </g>
</svg>
