<?xml version="1.0" encoding="UTF-8"?>
<svg width="1200pt" height="1200pt" version="1.1" viewBox="0 0 1200 1200" xmlns="http://www.w3.org/2000/svg">
 <g>
  <path d="m1200 600c0 214.36-114.36 412.44-300 519.62-185.64 107.18-414.36 107.18-600 0-185.64-107.18-300-305.26-300-519.62s114.36-412.44 300-519.62c185.64-107.18 414.36-107.18 600 0 185.64 107.18 300 305.26 300 519.62" fill="#ff814a"/>
  <path d="m675.97 891.13c-18.863-5.1797-42.348-11.633-45.453-19.852-14.34-37.934-10.766-205.5 1.7109-233.22 12.281-27.293 22.621-36.695 38.281-50.922 3.9414-3.5859 8.1562-7.4102 12.738-11.824 42.457-40.961 57.062-89.371 47.352-156.99-11.84-82.359-28.859-143-31.25-151.3-0.36719-6.582-5.6914-15.586-104.24-15.586-98.559 0-103.88 9.0039-104.25 15.586-2.3828 8.2969-19.402 68.93-31.238 151.3-9.7109 67.617 4.8867 116.03 47.344 156.99 4.5742 4.4141 8.7891 8.2344 12.73 11.809 15.66 14.23 26.008 23.629 38.297 50.938 12.48 27.719 16.051 195.29 1.7109 233.22-3.1055 8.2227-26.59 14.672-45.461 19.852-29.395 8.0742-59.793 16.414-60.824 38.48-0.17578 3.8242 0.15625 8.7812 4.3086 13.137 8.6719 9.0938 32.301 13.699 137.39 13.699 105.08 0 128.71-4.6055 137.38-13.699 4.1562-4.3555 4.4883-9.3125 4.3086-13.137-1.0352-22.066-31.434-30.406-60.828-38.48zm8.4961-618.66c-9.6367 1.5625-33 3.668-89.359 3.668s-79.727-2.1055-89.359-3.668c5.7656-1.8672 25.578-5.9258 89.359-5.9258 63.809 0 83.602 4.0469 89.359 5.9258zm37.164 659.75c-3.8242 6.0352-46.391 9.1055-126.52 9.1055-80.141 0-122.71-3.0703-126.52-9.0938-0.023438-0.058594-0.14063-0.44141-0.074219-1.918 0.51562-11.098 27.809-18.598 49.734-24.605 25.594-7.0391 49.762-13.668 55.594-29.094 15.527-41.094 11.477-214.67-2.0664-244.77-13.578-30.168-26.09-41.535-41.918-55.926-3.8359-3.4844-7.9414-7.2031-12.398-11.512-38.605-37.227-51.828-81.621-42.871-143.94 9.7266-67.703 22.961-120.42 28.469-140.88 14.406 2.7266 45.199 4.1016 92.055 4.1016 46.844 0 77.641-1.375 92.047-4.1016 5.5117 20.461 18.75 73.18 28.477 140.88 8.9609 62.316-4.2656 106.7-42.879 143.94-4.4648 4.3086-8.5664 8.043-12.406 11.527-15.832 14.391-28.332 25.742-41.902 55.91-13.543 30.098-17.594 203.68-2.0664 244.77 5.832 15.426 30 22.051 55.594 29.094 21.926 6.0078 49.211 13.504 49.727 24.605 0.066406 1.4766-0.050781 1.8594-0.066407 1.9062z" fill="#fff"/>
 </g>
</svg>
