<?xml version="1.0" standalone="no"?>
<!DOCTYPE svg PUBLIC "-//W3C//DTD SVG 20010904//EN"
 "http://www.w3.org/TR/2001/REC-SVG-20010904/DTD/svg10.dtd">
<svg version="1.0" xmlns="http://www.w3.org/2000/svg"
 width="2560.000000pt" height="2560.000000pt" viewBox="0 0 2560.000000 2560.000000"
 preserveAspectRatio="xMidYMid meet">
<metadata>
Created by potrace 1.14, written by Peter Selinger 2001-2017
</metadata>
<g transform="translate(0.000000,2560.000000) scale(0.100000,-0.100000)"
fill="#000000" stroke="none">
<path d="M12305 25589 c-190 -8 -299 -16 -645 -43 -283 -23 -784 -87 -1020
-131 -47 -9 -121 -22 -165 -30 -281 -52 -622 -127 -825 -181 -52 -14 -120 -32
-150 -40 -120 -32 -206 -56 -230 -64 -14 -5 -52 -16 -85 -25 -33 -9 -78 -23
-100 -30 -22 -7 -128 -41 -235 -75 -107 -34 -199 -66 -205 -70 -5 -4 -21 -10
-35 -13 -54 -11 -466 -163 -573 -211 -18 -8 -86 -35 -152 -62 -66 -26 -147
-59 -180 -75 -33 -15 -112 -50 -175 -79 -325 -147 -741 -356 -975 -490 -199
-113 -275 -158 -440 -259 -675 -412 -1283 -867 -1895 -1415 -194 -174 -754
-734 -921 -921 -542 -607 -1003 -1224 -1411 -1890 -86 -139 -258 -435 -258
-442 0 -2 -11 -20 -23 -41 -48 -76 -407 -779 -407 -796 0 -3 -19 -44 -41 -93
-315 -675 -652 -1651 -810 -2353 -56 -246 -112 -511 -119 -560 -5 -30 -16 -93
-25 -140 -37 -192 -71 -415 -105 -695 -5 -44 -15 -118 -20 -165 -26 -207 -48
-521 -71 -1003 -13 -275 -8 -778 11 -1102 16 -256 64 -762 95 -980 8 -60 20
-146 25 -190 69 -522 257 -1344 447 -1945 56 -181 70 -223 128 -385 26 -71 50
-141 55 -155 33 -104 242 -629 299 -752 17 -37 41 -93 55 -125 85 -201 352
-734 506 -1008 89 -158 277 -476 345 -580 471 -731 812 -1177 1403 -1835 131
-146 671 -681 822 -815 74 -66 155 -138 180 -161 57 -53 318 -270 475 -395
191 -152 567 -427 782 -572 169 -113 237 -156 378 -244 268 -165 473 -286 560
-328 22 -11 42 -23 45 -26 15 -19 676 -354 810 -412 75 -32 104 -45 180 -80
102 -48 191 -87 197 -87 3 0 21 -7 41 -16 81 -36 100 -44 177 -74 44 -18 94
-38 110 -45 150 -63 679 -247 895 -312 78 -23 129 -39 175 -53 22 -7 54 -17
70 -21 26 -6 120 -32 345 -94 79 -22 257 -65 310 -75 25 -5 83 -17 130 -28 47
-11 155 -34 240 -51 142 -28 188 -37 380 -72 36 -6 97 -15 135 -20 39 -4 109
-15 157 -23 442 -76 1241 -136 1823 -136 505 0 1225 47 1620 106 55 8 136 19
180 25 44 5 100 13 125 18 63 13 173 31 253 41 65 9 95 14 247 45 36 7 92 19
125 25 33 6 87 18 120 25 33 7 96 21 140 30 44 9 103 23 130 30 28 7 82 21
120 30 39 8 93 22 120 30 28 7 104 28 170 45 111 29 232 63 330 94 22 7 67 21
100 31 33 9 76 23 95 30 19 7 82 28 140 46 58 17 109 36 114 41 6 4 19 8 29 8
10 0 33 6 50 14 18 8 59 23 92 35 33 11 85 29 115 41 30 12 82 30 115 42 33
11 64 24 69 29 6 5 17 9 25 9 9 0 29 7 45 15 15 8 34 15 41 15 7 0 18 7 25 15
7 8 21 15 31 15 10 0 35 7 56 16 21 9 52 22 68 29 47 20 108 47 137 62 14 7
31 13 37 13 6 0 49 18 95 40 46 22 88 40 93 40 6 0 16 7 23 15 7 8 20 15 29
15 14 0 84 31 176 78 17 9 37 19 45 22 39 18 277 133 290 141 8 4 40 21 70 37
30 16 100 53 155 82 55 29 112 59 127 67 15 8 30 18 33 24 4 5 13 9 22 9 8 0
42 18 74 39 33 22 68 43 79 46 11 4 20 11 20 16 0 5 8 9 18 9 10 0 23 5 29 11
14 14 52 36 76 45 9 3 17 10 17 15 0 5 6 9 13 9 7 0 43 20 81 45 37 24 76 47
87 50 10 4 19 11 19 16 0 5 7 9 15 9 8 0 15 4 15 9 0 5 10 13 23 17 12 4 67
37 122 73 55 36 105 68 110 70 6 2 26 17 46 32 20 16 40 29 43 29 3 0 43 26
89 57 45 31 102 70 127 87 152 102 782 583 860 657 9 8 42 36 75 64 33 27 76
64 95 81 19 18 73 65 120 104 147 126 317 286 571 540 292 291 388 393 546
577 65 76 123 143 129 148 19 18 168 197 271 325 308 385 585 776 861 1215 6
11 15 27 19 35 4 8 9 17 13 20 8 6 160 258 160 264 0 3 14 25 30 49 16 25 30
48 30 51 0 4 11 23 23 44 13 20 40 66 59 102 19 36 49 90 65 120 143 263 204
386 363 725 81 173 114 246 164 370 21 50 43 104 51 120 36 83 87 210 120 300
20 55 43 117 51 138 8 20 21 56 30 80 9 23 22 57 30 75 8 18 14 41 14 50 0 10
4 22 9 27 8 10 116 335 147 445 9 30 20 69 26 85 5 17 14 44 18 60 5 17 16 55
25 85 9 30 27 93 40 140 13 47 33 121 45 165 13 44 26 96 30 115 4 19 17 73
29 120 12 47 26 105 31 130 5 25 16 74 24 110 37 171 79 370 86 415 5 28 16
88 25 135 67 351 124 823 155 1285 6 83 16 206 22 275 14 164 14 1164 0 1285
-6 50 -16 171 -22 270 -24 416 -89 957 -155 1290 -9 44 -20 107 -24 140 -5 33
-13 80 -19 105 -6 25 -16 72 -22 105 -7 33 -18 81 -26 107 -8 26 -14 56 -14
68 0 12 -7 49 -15 83 -8 34 -28 121 -45 192 -17 72 -37 155 -45 185 -8 30 -29
107 -46 170 -16 63 -34 124 -38 135 -5 11 -16 47 -25 80 -10 33 -22 74 -28 90
-5 17 -14 50 -19 75 -5 24 -14 49 -19 54 -6 6 -10 20 -10 32 0 12 -7 35 -15
50 -8 16 -15 37 -15 47 0 9 -4 25 -9 35 -5 9 -25 67 -44 127 -20 61 -46 135
-57 165 -12 30 -26 69 -30 85 -13 44 -42 124 -100 275 -29 74 -58 151 -65 170
-19 50 -186 440 -229 535 -95 206 -129 275 -237 490 -334 660 -768 1354 -1218
1945 -92 122 -334 425 -402 505 -270 317 -409 466 -738 795 -350 350 -489 478
-776 721 -470 398 -847 674 -1450 1064 -129 84 -366 224 -585 348 -223 126
-634 333 -905 457 -228 104 -223 102 -330 145 -49 20 -114 47 -143 61 -29 13
-59 24 -66 24 -8 0 -27 6 -43 14 -15 8 -46 22 -68 31 -22 9 -49 20 -60 25 -51
24 -181 70 -195 70 -9 0 -25 7 -36 15 -10 8 -30 15 -42 15 -13 0 -36 6 -50 14
-35 18 -92 39 -167 62 -33 10 -64 21 -70 25 -5 4 -26 10 -45 14 -19 4 -39 10
-45 14 -5 4 -37 15 -70 25 -33 10 -77 25 -98 32 -20 8 -50 14 -65 14 -15 0
-36 7 -46 15 -11 8 -32 15 -46 15 -14 0 -30 4 -35 9 -8 8 -99 36 -230 71 -16
4 -66 18 -110 30 -149 41 -190 51 -365 91 -325 74 -694 147 -855 169 -33 5
-132 20 -220 34 -211 33 -477 64 -705 81 -102 8 -234 19 -295 24 -309 28 -925
37 -1330 20z m2375 -6129 c1672 -33 2569 -95 2987 -205 168 -44 236 -94 249
-183 11 -76 -13 -1030 -31 -1172 -67 -559 -206 -1033 -445 -1515 -236 -477
-498 -835 -891 -1220 -647 -632 -1418 -1028 -2324 -1195 -259 -48 -371 -76
-447 -110 -44 -21 -103 -168 -146 -370 -67 -309 -111 -763 -144 -1485 -16
-338 -15 -1745 1 -2265 27 -899 69 -1696 101 -1939 19 -142 88 -215 305 -321
242 -120 535 -211 1140 -355 675 -161 840 -206 1028 -281 210 -84 323 -168
379 -281 27 -56 32 -76 32 -143 0 -329 -339 -414 -1834 -461 -496 -16 -2934
-16 -3575 0 -1430 34 -1855 113 -1926 358 -22 75 -18 179 9 238 43 95 148 182
311 257 172 80 389 142 1086 309 944 225 1339 384 1439 577 31 60 76 659 106
1432 42 1062 42 2409 0 3185 -41 752 -123 1282 -230 1495 l-28 55 -98 27
c-103 28 -217 52 -416 87 -164 29 -405 93 -598 158 -1403 474 -2482 1627
-2875 3073 -60 222 -106 470 -135 730 -5 47 -15 326 -21 621 -12 526 -12 537
7 570 42 72 229 136 519 178 250 36 397 51 805 81 348 25 1252 57 1965 69 674
12 3139 12 3695 1z"/>
<path d="M11415 19139 c-1169 -14 -2223 -53 -2725 -99 -58 -6 -112 -11 -120
-11 -62 -6 471 -54 865 -78 1649 -103 5117 -103 6730 -1 244 16 545 40 695 56
74 7 146 14 159 14 13 0 22 2 19 5 -3 3 -86 12 -184 20 -1084 87 -3152 123
-5439 94z"/>
<path d="M8016 18952 c-10 -9 -6 -568 4 -767 34 -618 173 -1145 445 -1685 456
-904 1223 -1609 2153 -1979 288 -115 496 -172 927 -255 301 -58 444 -109 521
-184 161 -156 287 -761 344 -1652 48 -756 52 -2068 9 -3135 -37 -931 -83
-1574 -120 -1682 -68 -199 -285 -372 -644 -512 -265 -104 -563 -188 -1115
-316 -653 -151 -950 -242 -1057 -322 -40 -29 -41 -38 -5 -57 102 -52 482 -89
1212 -118 443 -18 3632 -18 4105 0 376 14 713 34 937 57 228 23 418 68 418 99
-1 60 -446 197 -1135 351 -589 131 -1048 275 -1295 407 -289 154 -421 314
-450 548 -28 227 -65 896 -101 1830 -17 445 -23 1825 -10 2205 36 1034 112
1670 246 2055 49 140 96 223 152 265 85 65 255 117 561 175 455 84 760 181
1130 361 704 340 1286 864 1713 1544 71 112 229 416 284 544 170 398 273 799
321 1245 18 165 32 962 18 976 -6 6 -28 4 -57 -5 -26 -8 -111 -25 -190 -39
-781 -138 -2575 -207 -5042 -193 -2316 14 -3633 87 -4237 236 -20 5 -39 6 -42
3z"/>
</g>
</svg>
