<svg class="p-media-object__image" width="1200pt" height="1200pt" version="1.1" viewBox="0 0 1200 1200" xmlns="http://www.w3.org/2000/svg">
 <g>
  <path d="m1200 600c0 214.36-114.36 412.44-300 519.62-185.64 107.18-414.36 107.18-600 0-185.64-107.18-300-305.26-300-519.62s114.36-412.44 300-519.62c185.64-107.18 414.36-107.18 600 0 185.64 107.18 300 305.26 300 519.62" fill="var(--icon-circle-colour)"/>
  <path d="m698.11 578.89c13.965-8.5469 28.406-17.371 41.918-27.836 47.328-36.68 84.832-74.422 64.227-165.05-15.395-67.676-31.418-121.93-31.594-122.55-1.6992-5.4922-4.25-13.785-172.66-13.785-168.41-0.003906-170.96 8.293-172.68 13.871-0.15625 0.53125-16.176 54.789-31.57 122.46-20.605 90.625 16.898 128.37 64.227 165.05 13.512 10.465 27.957 19.293 41.918 27.836 26.332 16.09 51.203 31.305 60.988 53.047 12.48 27.719 16.051 195.29 1.7109 233.22-3.1055 8.2227-26.59 14.672-45.453 19.852-29.402 8.0742-59.801 16.414-60.824 38.48-0.17578 3.8242 0.14844 8.7812 4.3008 13.137 8.6719 9.0781 32.301 13.699 137.39 13.699s128.71-4.6211 137.39-13.699c4.1562-4.3555 4.4805-9.3125 4.3008-13.137-1.0273-22.066-31.426-30.406-60.824-38.48-18.863-5.1797-42.348-11.633-45.453-19.852-14.34-37.934-10.766-205.5 1.7109-233.22 9.7852-21.742 34.656-36.957 60.988-53.047zm57.359-308.34c-14.973 2.8008-54.09 6.793-155.46 6.793-101.38 0-140.49-3.9922-155.47-6.793 12.367-2.1172 49.078-5.7695 155.47-5.7695 106.38 0 143.09 3.6523 155.46 5.7695zm-134.2 599.95c5.832 15.426 30 22.051 55.594 29.094 21.926 6.0078 49.211 13.504 49.727 24.605 0.074218 1.4766-0.050782 1.8594-0.066406 1.9023-3.832 6.0352-46.398 9.1055-126.52 9.1055s-122.69-3.0703-126.52-9.0938c-0.023437-0.058594-0.14844-0.44141-0.074219-1.918 0.51562-11.098 27.801-18.598 49.727-24.605 25.594-7.0391 49.762-13.668 55.594-29.094 15.527-41.094 11.477-214.67-2.0664-244.77-11.699-26.008-38.508-42.391-66.887-59.75-13.617-8.3242-27.695-16.93-40.555-26.895-44.699-34.629-77.402-67.66-58.738-149.73 11.617-51.105 23.555-94.332 28.676-112.37 21.176 5.1172 76.797 7.8945 160.84 7.8945 84.039 0 139.66-2.7773 160.84-7.8945 5.1367 18.082 17.059 61.262 28.676 112.37 18.664 82.066-14.035 115.1-58.738 149.73-12.855 9.9648-26.938 18.566-40.555 26.895-28.375 17.359-55.188 33.742-66.887 59.75-13.535 30.102-17.586 203.68-2.0586 244.77z" fill="var(--icon-colour)"/>
 </g>
</svg>
