<svg class="p-media-object__image" width="1200pt" height="1200pt" version="1.1" viewBox="0 0 1200 1200" xmlns="http://www.w3.org/2000/svg">
 <g>
  <path d="m1200 600c0 214.36-114.36 412.44-300 519.62-185.64 107.18-414.36 107.18-600 0-185.64-107.18-300-305.26-300-519.62s114.36-412.44 300-519.62c185.64-107.18 414.36-107.18 600 0 185.64 107.18 300 305.26 300 519.62" fill="var(--icon-circle-colour)"/>
  <path d="m807.06 355.48c0-7.668 0-18.164-207.19-18.164-207.2 0-207.2 10.496-207.2 18.164l0.13281 469.75c0 11.27 20.191 37.469 207.2 37.469 187 0 207.19-26.199 207.19-37.469zm-399.27 8.7969c22.414 6.418 89.078 9.9141 192.08 9.9141 103 0 169.66-3.4961 192.07-9.9141l0.10156 353.72c-7.6719 5.3359-44.883 23.832-192.04 23.832-146.5 0-184.86-19.199-192.11-23.914zm374.79-5.5312c-18.371 3.332-64.973 7.8828-182.71 7.8828s-164.35-4.5547-182.72-7.8828c19.102-2.6602 66.484-6.3125 182.72-6.3125s163.61 3.6523 182.71 6.3125zm-182.58 488.83c-164.35 0-189.02-20.301-192.08-23.875l-0.027344-88.715c20.66 9.3828 70.883 21.949 192.11 21.949 121.01 0 171.3-12.402 192.05-21.812l0.027343 88.582c-3.0742 3.5781-27.75 23.871-192.07 23.871z" fill="var(--icon-colour)"/>
 </g>
</svg>
