<svg class="p-media-object__image" width="1200pt" height="1200pt" version="1.1" viewBox="0 0 1200 1200" xmlns="http://www.w3.org/2000/svg">
 <g>
  <path d="m1200 600c0 214.36-114.36 412.44-300 519.62-185.64 107.18-414.36 107.18-600 0-185.64-107.18-300-305.26-300-519.62s114.36-412.44 300-519.62c185.64-107.18 414.36-107.18 600 0 185.64 107.18 300 305.26 300 519.62" fill="var(--icon-circle-colour)"/>
  <path d="m784.48 899.8c-3.6445-15.238-23.145-20.043-47.836-26.125-49.562-12.199-86.746-25.742-77.551-78.672 3.8086-21.891 23.941-35.012 41.695-46.59 9.0312-5.8906 17.578-11.461 23.57-17.859 18.082-19.27 45.164-348.45 53.062-449.46 0-7.7109 0-18.266-177.41-18.266-177.41 0-177.41 10.555-177.38 18.855 7.8672 100.43 34.953 429.61 53.02 448.87 6.0078 6.4062 14.555 11.977 23.586 17.867 17.758 11.578 37.891 24.699 41.695 46.59 9.1953 52.93-27.984 66.473-77.551 78.672-24.695 6.082-44.191 10.887-47.836 26.117-1.4609 6.1016-0.11719 12 3.8672 17.062 9.4766 12.023 38.508 28 180.61 28 142.09 0 171.13-15.977 180.61-28 3.9805-5.0586 5.3242-10.957 3.8633-17.055zm-40.613-617.03c-21.367 2.457-62.859 4.9805-143.86 4.9805-80.992 0-122.48-2.5234-143.85-4.9805 21.109-2.3398 62.621-4.8281 143.85-4.8281 81.234 0 122.76 2.4844 143.86 4.8281zm24.879 624.73c-6.5547 8.3086-37.18 22.242-168.74 22.242-131.55 0-162.18-13.934-168.74-22.242-1.3008-1.6445-1.3594-2.8633-1.0352-4.1836 1.5039-6.2812 20.234-10.895 36.754-14.961 40.281-9.918 101.16-24.906 88.812-95.934-4.9141-28.375-28.973-44.059-48.309-56.664-8.2656-5.3867-16.059-10.473-20.59-15.262-12-18.004-35.988-272.66-48.691-432.98 21.914 5.0547 77.859 7.7891 161.8 7.7891 83.898 0 139.83-2.7305 161.77-7.7812-12.715 160.91-36.664 414.99-48.426 432.69-4.7656 5.0703-12.562 10.156-20.828 15.543-19.336 12.605-43.395 28.289-48.309 56.664-12.355 71.023 48.531 86.016 88.812 95.934 16.516 4.0664 35.246 8.6797 36.754 14.965 0.32422 1.3164 0.26562 2.5352-1.0352 4.1797z" fill="var(--icon-colour)"/>
 </g>
</svg>
