<svg class="p-media-object__image" width="1200pt" height="1200pt" version="1.1" viewBox="0 0 1200 1200" xmlns="http://www.w3.org/2000/svg">
 <g>
  <path d="m1200 600c0 214.36-114.36 412.44-300 519.62-185.64 107.18-414.36 107.18-600 0-185.64-107.18-300-305.26-300-519.62s114.36-412.44 300-519.62c185.64-107.18 414.36-107.18 600 0 185.64 107.18 300 305.26 300 519.62" fill="var(--icon-circle-colour)"/>
  <path d="m680.86 891.13c-18.863-5.1797-42.348-11.633-45.461-19.852-14.332-37.949-10.758-205.5 1.7148-233.22 9.9492-22.125 25.609-31.941 47.293-45.504 10.629-6.6562 22.688-14.215 35.793-24.355 46.023-35.676 62.566-90.316 47.852-158.04-16.973-78.168-37.961-132.52-41.285-140.9l-0.10156-1.7422-2.2305-2.2305c-2.832-2.832-10.375-10.391-124.44-10.391-114.05 0-121.59 7.5586-124.43 10.391l-2.4492 2.5977v1.668c-3.6758 9.3008-24.367 63.293-41.164 140.61-14.715 67.719 1.832 122.36 47.852 158.04 13.105 10.156 25.164 17.699 35.793 24.355 21.668 13.578 37.328 23.379 47.277 45.504 12.488 27.734 16.059 195.29 1.7109 233.22-3.0977 8.2227-26.582 14.672-45.445 19.852-29.402 8.0742-59.809 16.414-60.824 38.48-0.17578 3.8242 0.14844 8.7812 4.3086 13.137 8.6641 9.0938 32.297 13.699 137.37 13.699 105.09 0 128.72-4.6211 137.39-13.699 4.1641-4.3672 4.4883-9.3125 4.2969-13.137-1.0273-22.066-31.418-30.406-60.82-38.48zm27.641-616.09c-12.961 1.918-42.328 4.2773-108.51 4.2773-66.172 0-95.535-2.3594-108.5-4.2773 10.516-1.9961 38.043-5.0234 108.5-5.0234 70.469 0 97.992 3.0234 108.51 5.0234zm18.012 657.19c-3.8359 6.0352-46.406 9.1055-126.52 9.1055-80.133 0-122.7-3.0703-126.51-9.0938-0.03125-0.058594-0.14844-0.44141-0.089844-1.918 0.53125-11.098 27.809-18.598 49.742-24.605 25.594-7.0391 49.758-13.668 55.586-29.094 15.543-41.094 11.484-214.67-2.0664-244.77-11.836-26.301-30.023-37.695-53.031-52.117-10.348-6.4648-22.051-13.801-34.555-23.496-41.695-32.297-55.941-80.367-42.363-142.86 14.297-65.758 31.355-114.18 38.043-131.98 20.332 4.4336 71.719 5.4727 115.24 5.4727 43.535 0 94.926-1.0391 115.26-5.4727 6.6836 17.797 23.746 66.223 38.043 131.98 13.578 62.492-0.66406 110.57-42.363 142.86-12.5 9.6992-24.223 17.031-34.555 23.496-23.027 14.422-41.211 25.816-53.047 52.117-13.535 30.082-17.594 203.66-2.0664 244.77 5.832 15.426 30.008 22.051 55.602 29.094 21.918 6.0078 49.211 13.504 49.727 24.605 0.058594 1.4766-0.058594 1.8594-0.074219 1.9062z" fill="var(--icon-colour)"/>
 </g>
</svg>
