<svg class="p-media-object__image" width="1200pt" height="1200pt" version="1.1" viewBox="0 0 1200 1200" xmlns="http://www.w3.org/2000/svg">
 <g>
  <path d="m1200 600c0 214.36-114.36 412.44-300 519.62-185.64 107.18-414.36 107.18-600 0-185.64-107.18-300-305.26-300-519.62s114.36-412.44 300-519.62c185.64-107.18 414.36-107.18 600 0 185.64 107.18 300 305.26 300 519.62" fill="var(--icon-circle-colour)"/>
  <path d="m811.77 413.69c-9.0625-25.875-23.719-43.543-42.391-51.113-29.105-11.766-58.73 0.5625-75.156 10.008 1.0195-22.035 1.5938-36.754 1.5938-37.004 0-6.6875 0-22.363-158.35-22.363-158.34 0.003906-158.34 15.68-158.34 22.645 0.45703 11.867 11.277 291.04 30.953 344.9 8.1914 22.406 26.168 33.477 42.035 43.246 17.047 10.496 27.559 17.652 28.707 32.059 3.2461 41.297-24.297 52.973-50.938 64.266-17.625 7.4688-34.273 14.523-35.277 31.039-0.38281 6.2734 1.5352 11.691 5.6992 16.117 10.895 11.57 38.391 19.293 137.16 19.293 98.773 0 126.27-7.7188 137.16-19.293 4.1641-4.4297 6.082-9.8438 5.6992-16.117-1.0039-16.516-17.652-23.57-35.293-31.039-26.641-11.293-54.184-22.965-50.922-64.266 1.1367-14.406 11.645-21.562 28.707-32.059 15.852-9.7695 33.828-20.84 42.008-43.23 0.67969-1.8164 1.3438-3.8984 1.9922-6.2148 17.312-8.3086 95.617-48.797 135.11-118.95 21.258-37.754 25.391-97.445 9.832-141.92zm-134.9-76.031c-13.949 2.5-49.465 5.9844-139.4 5.9844-89.906 0-125.43-3.4805-139.39-5.9805 11.344-3.4492 44.582-9.3242 139.39-9.3242 94.84-0.003906 128.07 5.8789 139.4 9.3203zm111.9 210.54c-41.137 73.047-130.54 113.7-131.44 114.11l-3.3516 1.4922-0.89844 3.5586c-0.78125 3.1719-1.5938 5.918-2.4336 8.207-6.375 17.492-21.312 26.672-35.75 35.57-16.738 10.301-34.051 20.961-35.836 43.75-4.1328 52.148 32.988 67.883 60.09 79.363 13.77 5.832 25.652 10.863 26.098 18.035 0.13281 2.1094-0.32422 3.4688-1.625 4.8398-13.668 14.539-98.332 14.539-126.15 14.539-27.824 0-112.48 0-126.15-14.539-1.3008-1.3711-1.7578-2.7305-1.625-4.8398 0.44141-7.1719 12.324-12.207 26.098-18.051 27.098-11.469 64.207-27.203 60.09-79.352-1.8008-22.789-19.098-33.445-35.836-43.75-14.449-8.8984-29.371-18.098-35.762-35.57-16.977-46.453-27.621-282.2-29.672-331.01 27.215 5.668 98.129 6.6406 142.87 6.6406s115.64-0.97266 142.86-6.6406c-0.37891 9.0312-1.0273 23.969-1.8945 42.137l-0.79688 16.621 13.047-10.332c0.38281-0.30859 38.789-30.301 73.031-16.383 18.348 7.4258 28.5 26.98 33.785 42.082 14.008 40.086 10.258 95.762-8.7383 129.52zm-45.09-151.59c-37.637-6.3477-65.371 34.051-66.555 35.762l-1.1953 1.7422-0.11719 2.1094c-2.4492 44.207-6.582 108.25-12.281 162.18l-1.0625 10.023 9.918-1.7852c3.5117-0.63281 86.273-16.441 106.66-92.457 4.6328-17.344 12.531-68.797-6.4961-98.273-6.9648-10.805-16.676-17.312-28.867-19.305zm20.75 113.65c-13.934 52.027-63.363 72.414-84.766 78.922 5.0781-50.879 8.7969-108.56 11.113-149.89 5.0938-6.6992 26.184-31.75 50.449-27.777 7.9102 1.3008 13.992 5.418 18.629 12.59 13.492 20.898 10.805 62.961 4.5742 86.152z" fill="var(--icon-colour)"/>
 </g>
</svg>
